<svg version="1.1" xmlns="http://www.w3.org/2000/svg" xmlns:xlink="http://www.w3.org/1999/xlink" width="167.08546" height="275.28037" viewBox="0,0,167.08546,275.28037"><g transform="translate(-144.66977,-23.67946)"><g data-paper-data="{&quot;isPaintingLayer&quot;:true}" fill-rule="nonzero" stroke-linejoin="miter" stroke-miterlimit="10" stroke-dasharray="" stroke-dashoffset="0" style="mix-blend-mode: normal"><g data-paper-data="{&quot;index&quot;:null}" stroke-linecap="round"><path d="M149.27064,188.47328c0,0 2.72653,-4.91027 10.74703,-5.08218c4.03294,-0.08644 14.26372,0.11015 22.74053,1.24197c7.04584,0.94076 12.88673,2.84621 12.88673,2.84621c0,0 2.21619,2.66193 3.60494,6.26892c0.83779,2.17595 1.37269,7.71393 0.23734,15.0452c-1.42835,9.2232 -4.51873,20.91027 -1.91734,28.09347c4.76141,13.14773 30.08231,7.81157 30.08231,7.81157c0,0 11.22,4.12826 5.79497,4.76344c-8.7292,1.02204 -43.86121,3.87605 -47.76826,-3.48641c-5.42528,-10.22343 5.67681,-33.23272 5.12392,-46.2186c-0.09273,-2.17794 0.19747,-3.91234 -0.73193,-5.42971c-0.83008,-1.3552 -6.26256,-6.03602 -12.78924,-5.34857c-7.60205,0.80071 -16.1107,5.13589 -18.92293,4.62609c-2.73074,-0.49502 -5.02937,0.43944 -6.43576,-0.08281c-4.92698,-1.82956 -2.6523,-5.04857 -2.6523,-5.04857z" fill="#0071c1" stroke="none" stroke-width="0"/><path d="M155.01806,184.37765l2.15884,5.32538l21.35183,-3.05685c0,0 6.9402,0.67236 10.83391,2.60956c3.89371,1.93721 2.69589,2.00339 2.72248,4.13501c0.02659,2.13162 -2.43285,19.07825 -2.43285,19.07825c0,0 -3.43283,16.43924 -1.36962,26.6451c2.06322,10.20586 4.57654,4.96412 9.82827,7.5652c5.25173,2.60108 39.43229,0.41281 39.43229,0.41281c0,0 -27.48237,4.58303 -32.95917,3.53581c-2.34376,-0.44815 -16.47305,-1.73718 -16.47305,-1.73718c0,0 -1.43611,-0.59576 -2.67221,-2.71887c-0.83501,-1.4342 -1.85352,-2.84727 -1.22883,-7.98235c1.41067,-11.5959 10.08596,-37.70099 5.42893,-44.55518c-7.33559,-10.79647 -35.89757,4.93611 -38.4034,0.05112c-5.0794,-9.90203 3.78257,-9.30781 3.78257,-9.30781z" fill="#05609f" stroke="none" stroke-width="0"/><path d="M149.27064,188.47328c0,0 2.72653,-4.91027 10.74703,-5.08218c4.03294,-0.08644 14.26372,0.11015 22.74053,1.24197c7.04584,0.94076 12.88673,2.84621 12.88673,2.84621c0,0 2.21619,2.66193 3.60494,6.26892c0.83779,2.17595 1.37269,7.71393 0.23734,15.0452c-1.42835,9.2232 -4.51873,20.91027 -1.91734,28.09347c4.76141,13.14773 31.74898,3.47824 31.74898,3.47824c0,0 11.22,7.46159 5.79498,8.09677c-8.7292,1.02204 -45.52788,4.87605 -49.43492,-2.48641c-5.42528,-10.22343 5.67681,-33.23272 5.12392,-46.2186c-0.09273,-2.17794 0.19747,-3.91234 -0.73193,-5.42971c-0.83008,-1.3552 -6.26256,-6.03602 -12.78924,-5.34857c-7.60205,0.80071 -16.1107,5.13589 -18.92293,4.62609c-2.73074,-0.49502 -5.02937,0.43944 -6.43576,-0.08281c-4.92698,-1.82956 -2.6523,-5.04857 -2.6523,-5.04857z" fill="none" stroke="#000000" stroke-width="2"/></g><g data-paper-data="{&quot;index&quot;:null}"><path d="M309.68205,209.53065c-2.65531,5.76224 -9.40211,8.22263 -15.06935,5.49546c-5.66725,-2.72716 -8.10889,-9.60918 -5.45358,-15.37141c2.65531,-5.76222 9.40208,-8.22262 15.06934,-5.49546c5.66725,2.72716 8.10889,9.60918 5.45359,15.37141z" fill="#ffffff" stroke="none" stroke-width="0" stroke-linecap="butt"/><path d="M250.05526,173.73723c1.2239,-1.24755 3.09352,-2.29121 4.1136,-2.52044c3.35068,-0.75299 11.78604,1.70968 11.78604,1.70968l24.07031,16.5131l-7.98843,10.80787l-34.2369,-23.24107c0,0 0.76347,-1.74843 2.25538,-3.26914z" fill="#0071c1" stroke="none" stroke-width="0" stroke-linecap="round"/><path d="M309.68205,209.53065c-2.65531,5.76224 -9.40211,8.22263 -15.06935,5.49546c-5.66725,-2.72716 -8.10889,-9.60918 -5.45358,-15.37141c2.65531,-5.76222 9.40208,-8.22262 15.06934,-5.49546c5.66725,2.72716 8.10889,9.60918 5.45359,15.37141z" fill="none" stroke="#000000" stroke-width="2" stroke-linecap="butt"/><path d="M289.07128,188.68841l-8.27753,10.50039l-31.8404,-22.30004c0,0 3.09907,-5.2113 5.70307,-5.95118c2.30364,-0.65456 9.13051,1.73638 9.13051,1.73638l-5.4089,4.33863l19.53045,16.24443l7.75734,-3.15337z" fill="#05609f" stroke="none" stroke-width="0" stroke-linecap="round"/><path d="M250.05527,173.73721c1.2239,-1.24754 3.09351,-2.2912 4.1136,-2.52043c3.35067,-0.75298 11.78602,1.70968 11.78602,1.70968l24.07031,16.5131l-7.98843,10.80786l-34.2369,-23.24106c0,0 0.76347,-1.74844 2.25538,-3.26915z" fill="none" stroke="#000000" stroke-width="2" stroke-linecap="round"/><path d="M284.84079,208.34906l-5.95492,-4.55949l14.13446,-18.46022l5.95492,4.55949z" fill="#ffffff" stroke="#000000" stroke-width="2" stroke-linecap="butt"/></g><g data-paper-data="{&quot;index&quot;:null}"><path d="M225.29261,230.07486v-55.30686c0,0 9.41568,2.89958 15.50836,2.89958c5.03051,0 18.47537,-2.89958 18.47537,-2.89958v55.30686z" fill="#0071c1" stroke="#000000" stroke-width="2" stroke-linecap="butt"/><path d="M258.44551,231.57475l-32.15338,-0.16719l-0.33318,-56.63955c0,0 10.14687,3.00009 15.33824,2.94712c5.65294,-0.05768 17.31279,-3.28029 17.31279,-3.28029l-0.33318,6.99665l-22.92256,1.56622c0,0 -2.58464,17.01888 -3.03335,20.85416c-0.16234,1.38758 0.76823,2.73441 0.76823,2.73441c0,0 1.44629,2.06452 4.56106,2.97942c4.71198,1.38405 20.95979,4.51682 20.95979,4.51682z" fill="#05609f" stroke="none" stroke-width="0" stroke-linecap="round"/><path d="M225.29262,230.07486v-55.30686c0,0 9.41568,2.89958 15.50836,2.89958c5.03051,0 18.47537,-2.89958 18.47537,-2.89958v55.30686z" fill="none" stroke="#000000" stroke-width="2" stroke-linecap="butt"/></g><g data-paper-data="{&quot;index&quot;:null}"><path d="M182.61359,195.73625c5.4954,-3.05872 12.37631,-1.0031 15.36895,4.59137c2.99264,5.59448 0.96376,12.60928 -4.53164,15.668c-5.49539,3.05873 -12.37631,1.00311 -15.36895,-4.59136c-2.99264,-5.59447 -0.96376,-12.60928 4.53164,-15.668z" fill="#ffffff" stroke="none" stroke-width="0" stroke-linecap="butt"/><path d="M179.13827,200.96492l1.75743,1.05575l-0.96936,6.42367c0,0 1.35943,3.50404 2.39229,4.34985c1.53443,1.25655 5.92086,2.45784 5.92086,2.45784l5.00743,-2.63757l-2.14077,-17.42291c0,0 4.26528,1.54358 6.4208,4.71721c2.28431,3.36325 2.44315,8.37876 1.57218,8.79892c-0.69973,0.33756 -1.43847,4.73329 -5.14323,7.09362c-2.86184,1.8233 -8.53908,1.97603 -10.80563,0.95313c-2.58584,-1.16698 -5.77094,-5.57372 -6.09774,-9.86185c-0.16835,-2.20894 2.08573,-5.92763 2.08573,-5.92763z" fill="#dcdcdc" stroke="none" stroke-width="0" stroke-linecap="round"/><path d="M235.47918,172.13489c1.57954,1.42948 2.44544,3.12951 2.44544,3.12951l-32.7971,25.23216l-8.61584,-10.31468l23.04778,-17.91263c0,0 8.27431,-2.95899 11.66378,-2.4062c1.03189,0.16828 2.96015,1.09914 4.25594,2.27185z" fill="#0071c1" stroke="none" stroke-width="0" stroke-linecap="round"/><path d="M182.61359,195.73625c5.4954,-3.05872 12.37631,-1.0031 15.36895,4.59137c2.99264,5.59448 0.96376,12.60928 -4.53164,15.668c-5.49539,3.05873 -12.37631,1.00311 -15.36895,-4.59136c-2.99264,-5.59447 -0.96376,-12.60928 4.53164,-15.668z" fill="none" stroke="#000000" stroke-width="2" stroke-linecap="butt"/><path d="M200.90279,190.58608l7.93082,2.68738l18.53187,-17.37498l-5.65688,-4.00995c0,0 6.67294,-2.79191 9.01137,-2.27523c2.64332,0.58403 6.04623,5.60218 6.04623,5.60218l-30.46068,24.15055l-8.88617,-9.99058z" fill="#05609f" stroke="none" stroke-width="0" stroke-linecap="round"/><path d="M235.47919,172.13486c1.57953,1.42949 2.44544,3.12952 2.44544,3.12952l-32.79711,25.23216l-8.61583,-10.31467l23.04777,-17.91263c0,0 8.27431,-2.95898 11.66378,-2.40619c1.0319,0.16829 2.96015,1.09913 4.25594,2.27184z" fill="none" stroke="#000000" stroke-width="2" stroke-linecap="round"/><path d="M187.60405,191.16159l5.6738,-4.90489l15.20521,17.58874l-5.67379,4.9049z" fill="#ffffff" stroke="#000000" stroke-width="2" stroke-linecap="butt"/></g><g data-paper-data="{&quot;index&quot;:null}"><path d="M218.23584,225.66771c0,-4.19476 1.8947,-12.83829 1.8947,-12.83829l44.8329,1.07546c0,0 0.75535,8.44048 0.75535,11.76283c0,2.84652 -0.47442,5.57916 -1.34643,8.11902c-3.25559,9.48237 -12.05309,16.27743 -22.39505,16.27743c-13.11205,0 -23.74148,-10.92266 -23.74148,-24.39644z" fill="#fe0000" stroke="none" stroke-width="0" stroke-linecap="butt"/><path d="M264.46918,214.07708c0,0 -0.29287,0.21805 -1.07598,0.8363c-0.79932,0.63104 -3.67232,2.91235 -3.67232,2.91235l-33.73788,0.49982c0,0 3.71981,4.45615 3.54835,6.58228c-0.08703,1.07924 -2.55343,1.13013 -3.40782,2.63601c-1.38837,2.44704 -1.39008,6.27614 -1.39008,6.27614l34.48762,6.99749c0,0 -2.65317,4.95029 -5.24812,6.24776c-3.25294,1.62646 -12.74542,2.74901 -12.74542,2.74901c0,0 -4.20837,0.44958 -8.10202,-1.5275c-4.90244,-2.48931 -9.89105,-7.8017 -11.92756,-11.19587c-1.23934,-2.06556 -2.40014,-5.84671 -2.4295,-9.7688c-0.04904,-6.55087 1.71653,-13.49491 1.71653,-13.49491z" fill="#b50004" stroke="none" stroke-width="0" stroke-linecap="round"/><path d="M218.23584,225.66771c0,-4.19476 1.8947,-12.83829 1.8947,-12.83829l44.8329,1.07546c0,0 0.75535,8.44048 0.75535,11.76283c0,13.47378 -10.62942,24.39645 -23.74148,24.39645c-13.11205,0 -23.74148,-10.92266 -23.74148,-24.39644z" fill="none" stroke="#000000" stroke-width="2" stroke-linecap="butt"/></g><g data-paper-data="{&quot;index&quot;:null}" stroke-linecap="butt"><path d="M198.63869,135.63609c0,-23.09285 19.09337,-41.81332 42.64624,-41.81332c23.55287,0 42.64625,18.72046 42.64625,41.81332c0,23.09286 -19.09338,41.81331 -42.64625,41.81331c-23.55287,0 -42.64624,-18.72045 -42.64624,-41.81331z" fill="#05609f" stroke="#000000" stroke-width="2"/><path d="M208.13547,137.76019c0,-21.55306 16.79356,-39.02524 37.50947,-39.02524c20.71591,0 37.50948,17.47221 37.50948,39.02526c0,21.55306 -16.79356,39.02526 -37.50948,39.02526c-20.7159,0 -37.50947,-17.47221 -37.50947,-39.02524z" fill="#0071c1" stroke="none" stroke-width="0"/><path d="M198.63869,135.6361c0,-23.09285 19.09337,-41.81332 42.64624,-41.81332c23.55287,0 42.64625,18.72046 42.64625,41.81332c0,23.09286 -19.09338,41.81331 -42.64625,41.81331c-23.55287,0 -42.64624,-18.72045 -42.64624,-41.81331z" fill="none" stroke="#000000" stroke-width="2"/></g><g data-paper-data="{&quot;index&quot;:null}" stroke-linecap="round"><path d="M217.63532,106.14782c0,0 -4.85906,-0.75164 -26.24185,-11.13756c-9.05591,-4.39858 -44.31581,-9.97839 -45.7237,-18.84809c-1.2175,-7.67021 2.51399,-15.05208 8.7285,-21.61128c5.09079,-5.37315 11.84781,-10.74222 18.91552,-10.65027c17.83935,0.23208 37.65804,19.26778 37.65804,19.26778c0,0 7.23635,6.46843 10.3516,10.15408c4.34995,5.14642 12.30422,20.16474 12.30422,20.16474c0,0 -6.08247,3.34322 -8.99225,5.73952c-2.74449,2.26017 -7.00008,6.92109 -7.00008,6.92109z" fill="#0071c1" stroke="none" stroke-width="0"/><path d="M151.33373,59.83664c0,0 -1.12258,7.61493 1.3327,11.32791c2.45527,3.71298 4.24783,5.60484 11.58588,8.20815c9.89595,3.51077 24.65413,6.56217 31.56654,9.35506c9.14775,3.69606 23.14917,11.08974 23.14917,11.08974c0,0 4.64521,-4.80971 7.04586,-6.43016c1.94509,-1.31293 6.28109,-2.56553 6.28109,-2.56553v2.99856l-15.65917,11.99426c0,0 -11.49839,-6.19549 -28.62313,-12.1164c-13.75584,-4.75611 -33.15137,-8.98046 -37.94381,-12.35473c-11.00327,-7.7472 1.26488,-21.50686 1.26488,-21.50686z" fill="#05609f" stroke="none" stroke-width="0"/><path d="M217.63532,106.14781c0,0 -4.85906,-0.75164 -26.24185,-11.13756c-9.05591,-4.39858 -44.31581,-9.97839 -45.7237,-18.84809c-1.2175,-7.67021 2.51399,-15.05208 8.7285,-21.61128c5.09079,-5.37315 11.84781,-10.74222 18.91552,-10.65027c17.83935,0.23208 37.65804,19.26778 37.65804,19.26778c0,0 7.23635,6.46843 10.3516,10.15408c4.34995,5.14642 12.30422,20.16474 12.30422,20.16474c0,0 -6.08247,3.34322 -8.99225,5.73952c-2.74449,2.26017 -7.00008,6.92109 -7.00008,6.92109z" fill="none" stroke="#000000" stroke-width="2"/></g><g data-paper-data="{&quot;index&quot;:null}" stroke-linecap="round"><path d="M286.96168,57.66096c0,0 -14.33116,14.46752 -19.20123,21.60289c-4.37601,6.41148 -8.6959,19.2704 -8.6959,19.2704l-22.78544,-4.38147c0,0 -1.23414,-9.78721 -0.29871,-19.09603c0.7684,-7.64656 3.16182,-15.84781 5.36193,-22.67626c1.50833,-4.68139 2.57397,-8.68707 4.36657,-11.54796c3.18935,-5.09004 6.28152,-11.71277 11.33771,-14.19507c6.9773,-3.42543 16.26015,-1.56383 21.75518,-0.34861c5.41535,1.19759 10.10476,2.92537 13.35437,5.36993c1.5774,1.18661 2.88144,3.30327 3.63833,4.15196c4.36118,4.88999 -8.83281,21.85023 -8.83281,21.85023z" fill="#0071c1" stroke="#000000" stroke-width="2"/><path d="M286.1789,29.30304c0,0 14.20666,2.36527 9.74007,14.12021c-2.15242,5.66466 -17.9317,21.25884 -26.48986,33.68691c-8.28856,12.03656 -9.39747,21.00596 -9.39747,21.00596l-24.1419,-4.59848c0,0 0.77268,-1.13049 6.55276,-1.72489c3.46189,-0.356 12.23641,0.46263 13.91047,-0.90792c5.51193,-4.5126 13.08371,-19.33323 13.08371,-19.33323c0,0 10.80954,-12.52025 13.42852,-17.73014c3.61567,-7.19259 3.3137,-24.51845 3.3137,-24.51845z" fill="#05609f" stroke="none" stroke-width="0"/><path d="M286.96168,57.66096c0,0 -14.33116,14.46752 -19.20123,21.60289c-4.37601,6.41148 -8.6959,19.2704 -8.6959,19.2704l-22.78544,-4.38147c0,0 -1.23414,-9.78721 -0.29871,-19.09603c0.7684,-7.64656 3.16182,-15.84781 5.36193,-22.67626c1.50833,-4.68139 2.57397,-8.68707 4.36657,-11.54796c3.18935,-5.09004 6.28152,-11.71277 11.33771,-14.19507c6.9773,-3.42543 16.26015,-1.56383 21.75518,-0.34861c5.41535,1.19759 10.10476,2.92537 13.35437,5.36993c1.5774,1.18661 2.88144,3.30327 3.63833,4.15196c4.36118,4.88999 -8.83281,21.85023 -8.83281,21.85023z" fill="none" stroke="#000000" stroke-width="2"/></g><path d="M220.60605,113.64774c0,0 1.87865,-1.41361 3.99655,-2.22168c1.29638,-0.49463 2.81663,-0.58673 3.65694,-0.50387c1.60697,0.15846 4.40988,1.58165 5.87343,2.74805c0.86021,0.68555 0.91166,1.4013 0.91166,1.4013" data-paper-data="{&quot;index&quot;:null}" fill="none" stroke="#000000" stroke-width="2" stroke-linecap="round"/><path d="M247.86354,114.05005c0,0 0.70761,-1.54785 2.83701,-2.82365c1.49799,-0.8975 4.33012,-1.62692 5.37937,-1.73319c2.30192,-0.23315 6.38247,3.07815 6.38247,3.07815" data-paper-data="{&quot;index&quot;:null}" fill="none" stroke="#000000" stroke-width="2" stroke-linecap="round"/><path d="M218.0755,148.32647c0,0 -2.87622,-8.55847 -2.37976,-14.48994c0.54389,-6.49817 4.53509,-10.49407 6.30087,-12.32691c1.41303,-1.46668 6.42121,-2.6513 9.61655,-1.0063c4.03118,2.07532 6.21234,7.32316 6.21234,7.32316" data-paper-data="{&quot;index&quot;:null}" fill="none" stroke="#000000" stroke-width="2" stroke-linecap="round"/><path d="M245.64692,126.3979c0,0 4.83276,-8.66056 10.7993,-7.50442c1.86561,0.3615 5.26335,2.86794 7.25789,5.79509c0.75149,1.10288 3.89033,6.76193 3.80531,11.70266c-0.11201,6.50889 -3.6125,12.50667 -3.6125,12.50667" data-paper-data="{&quot;index&quot;:null}" fill="none" stroke="#000000" stroke-width="2" stroke-linecap="round"/><path d="M253.22907,152.37007c0,2.7062 -4.83532,4.9 -10.8,4.9c-5.96467,0 -10.8,-2.1938 -10.8,-4.9c0,-2.7062 4.83532,-4.9 10.8,-4.9c5.96468,0 10.8,2.1938 10.8,4.9z" data-paper-data="{&quot;index&quot;:null}" fill="#000000" stroke="none" stroke-width="NaN" stroke-linecap="butt"/><path d="M250.82906,149.67007c0,0.99411 -2.82061,1.8 -6.3,1.8c-3.4794,0 -6.3,-0.80589 -6.3,-1.8c0,-0.99411 2.8206,-1.8 6.3,-1.8c3.4794,0 6.3,0.80588 6.3,1.8z" data-paper-data="{&quot;index&quot;:null}" fill="#ffffff" stroke="none" stroke-width="0" stroke-linecap="butt"/><g stroke-linecap="butt"><path d="M236.19077,137.66974c0,5.66092 -1.11929,10.25 -2.5,10.25c-1.38071,0 -2.5,-4.58908 -2.5,-10.25c0,-5.66092 1.11929,-10.25 2.5,-10.25c1.38071,0 2.5,4.58908 2.5,10.25z" data-paper-data="{&quot;index&quot;:null}" fill="#000000" stroke="#000000" stroke-width="1.5"/><path d="M235.94077,134.41974c0,3.58985 -0.89543,6.5 -2,6.5c-1.10457,0 -2,-2.91015 -2,-6.5c0,-3.58985 0.89543,-6.5 2,-6.5c1.10457,0 2,2.91015 2,6.5z" data-paper-data="{&quot;index&quot;:null}" fill="#ffffff" stroke="none" stroke-width="0"/><path d="M236.34752,141.98869c0,2.96001 -1.04525,6.73408 -2.26653,6.83295c-1.19983,0.09714 -2.57606,-3.42889 -2.57606,-6.33692c0,-3.33772 0.78377,2.82892 2.45785,3.28816c1.26912,0.34815 2.38474,-6.31451 2.38474,-3.7842z" fill="#57d876" stroke="none" stroke-width="0"/></g><g stroke-linecap="butt"><path d="M252.19077,137.66974c0,5.66092 -1.11929,10.25 -2.5,10.25c-1.38071,0 -2.5,-4.58908 -2.5,-10.25c0,-5.66092 1.11929,-10.25 2.5,-10.25c1.38071,0 2.5,4.58908 2.5,10.25z" data-paper-data="{&quot;index&quot;:null}" fill="#000000" stroke="#000000" stroke-width="1.5"/><path d="M251.94077,134.41974c0,3.58985 -0.89543,6.5 -2,6.5c-1.10457,0 -2,-2.91015 -2,-6.5c0,-3.58985 0.89543,-6.5 2,-6.5c1.10457,0 2,2.91015 2,6.5z" data-paper-data="{&quot;index&quot;:null}" fill="#ffffff" stroke="none" stroke-width="0"/><path d="M252.34752,141.98869c0,2.96001 -1.04525,6.73408 -2.26653,6.83295c-1.19983,0.09714 -2.57606,-3.42889 -2.57606,-6.33692c0,-3.33772 0.78377,2.82892 2.45785,3.28816c1.26912,0.34815 2.38474,-6.31451 2.38474,-3.7842z" fill="#57d876" stroke="none" stroke-width="0"/></g><g data-paper-data="{&quot;index&quot;:null}"><g data-paper-data="{&quot;index&quot;:null}"><path d="M289.09,288.38977c0.03513,0.79992 -0.70247,2.87909 -1.81565,4.56091c-1.26714,1.91445 -2.9326,3.39881 -2.9326,3.39881l-27.14841,1.60857c0,0 -9.74913,-0.58006 -10.06292,-7.72564c-0.3138,-7.14558 8.82479,-13.35072 20.41161,-13.85956c11.58681,-0.50883 21.23416,4.87133 21.54796,12.01692z" fill="#0071c1" stroke="none" stroke-width="0" stroke-linecap="butt"/><path d="M248.90109,291.76194l-2.41395,-54.96882l12.65166,-0.55559l2.41394,54.96882z" fill="#0071c1" stroke="none" stroke-width="0" stroke-linecap="butt"/><path d="M258.6444,242.45984c0,0 -6.50235,0.2728 -7.06891,3.3077c-0.56655,3.03489 0.44002,32.20132 0.44002,32.20132l9.22666,-1.45423l0.48,14.51569l-12.38964,1.14355l-2.87558,-54.72375l12.06217,-1.42889z" fill="#05609f" stroke="none" stroke-width="0" stroke-linecap="round"/><path d="M248.90109,291.76194l-2.41395,-54.96882l12.65166,-0.55559l2.41394,54.96882z" fill="none" stroke="#000000" stroke-width="2" stroke-linecap="butt"/><path d="M276.53008,277.58569l-8.72486,2.66408c0,0 2.75725,2.87287 3.27782,4.45246c0.61763,1.87416 1.69262,6.16137 1.69262,6.16137l15.46975,-1.02903c0,0 -0.57754,4.90444 -3.87619,5.89479c-4.35987,1.30894 -19.99899,1.27312 -19.99899,1.27312c0,0 -11.87776,1.33495 -12.63529,-0.69537c-0.66881,-1.79252 -5.74544,-1.95517 -4.09875,-6.16656c0.65486,-1.67481 0.85373,-5.09857 2.81059,-7.3398c2.56776,-2.9409 6.92743,-4.54867 6.92743,-4.54867c0,0 6.17084,-1.39567 8.94466,-1.49216c3.45899,-0.12033 10.2112,0.82578 10.2112,0.82578z" fill="#05609f" stroke="none" stroke-width="0" stroke-linecap="round"/><path d="M289.08999,288.38978c0.03513,0.79992 -0.70247,2.87909 -1.81565,4.56091c-1.26714,1.91445 -2.9326,3.39881 -2.9326,3.39881l-27.14841,1.60857c0,0 -9.74913,-0.58006 -10.06293,-7.72564c-0.3138,-7.1456 8.8248,-13.35073 20.41161,-13.85956c11.58681,-0.50883 21.23417,4.87132 21.54796,12.01692z" fill="none" stroke="#000000" stroke-width="2" stroke-linecap="butt"/></g><g data-paper-data="{&quot;index&quot;:null}"><path d="M243.32681,245.55774l1.0269,-15.26781l19.43857,3.45896l6.30232,11.04201z" fill="#fe0000" stroke="none" stroke-width="0" stroke-linecap="butt"/><path d="M243.91156,240.86867l0.26029,-10.02048l19.48259,3.10355l4.71435,10.15891c0,0 -9.15558,0.06973 -12.40186,-0.42223c-3.24628,-0.49195 -7.91919,-2.81022 -7.91919,-2.81022z" fill="#b50004" stroke="none" stroke-width="0" stroke-linecap="round"/><path d="M243.32681,245.55774l1.0269,-15.26781l19.43857,3.45896l6.09543,10.61842z" fill="none" stroke="#000000" stroke-width="2" stroke-linecap="butt"/></g></g><g data-paper-data="{&quot;index&quot;:null}"><g data-paper-data="{&quot;index&quot;:null}"><path d="M192.55389,288.38978c0.3138,-7.14558 9.96115,-12.52575 21.54796,-12.01692c11.58682,0.50884 20.7254,6.71398 20.41161,13.85956c-0.31379,7.14558 -10.06292,7.72564 -10.06292,7.72564l-27.1484,-1.60856c0,0 -1.66546,-1.48436 -2.9326,-3.39881c-1.11318,-1.68183 -1.85078,-3.761 -1.81565,-4.56092z" fill="#0071c1" stroke="none" stroke-width="0" stroke-linecap="butt"/><path d="M220.09113,291.20636l2.41395,-54.96883l12.65166,0.55559l-2.41395,54.96881z" fill="#0071c1" stroke="none" stroke-width="0" stroke-linecap="butt"/><path d="M223.12475,236.02122l12.06218,1.42889l-2.87559,54.72376l-12.38963,-1.14355l0.48,-14.51569l9.22666,1.45423c0,0 1.00657,-29.16643 0.44002,-32.20132c-0.56657,-3.0349 -7.06892,-3.3077 -7.06892,-3.3077z" fill="#05609f" stroke="none" stroke-width="0" stroke-linecap="round"/><path d="M220.09113,291.20636l2.41395,-54.96883l12.65166,0.55559l-2.41395,54.96881z" fill="none" stroke="#000000" stroke-width="2" stroke-linecap="butt"/><path d="M205.11381,277.5857c0,0 6.75221,-0.94611 10.2112,-0.82578c2.77382,0.0965 8.94466,1.49217 8.94466,1.49217c0,0 4.35967,1.60778 6.92743,4.54868c1.95686,2.24123 2.15573,5.66499 2.8106,7.33979c1.64669,4.21139 -3.42994,4.37404 -4.09875,6.16656c-0.75754,2.03032 -12.63529,0.69537 -12.63529,0.69537c0,0 -15.63911,0.03582 -19.99899,-1.27312c-3.29865,-0.99034 -3.87619,-5.89479 -3.87619,-5.89479l15.46975,1.02903c0,0 1.075,-4.28721 1.69263,-6.16137c0.52057,-1.57959 3.27781,-4.45247 3.27781,-4.45247l-8.72486,-2.66408z" fill="#05609f" stroke="none" stroke-width="0" stroke-linecap="round"/><path d="M192.5539,288.38978c0.3138,-7.1456 9.96115,-12.52575 21.54796,-12.01692c11.58681,0.50883 20.7254,6.71396 20.41161,13.85956c-0.3138,7.14558 -10.06293,7.72565 -10.06293,7.72565l-27.14841,-1.60856c0,0 -1.66546,-1.48436 -2.9326,-3.39881c-1.11317,-1.68183 -1.85078,-3.761 -1.81565,-4.56092z" fill="none" stroke="#000000" stroke-width="2" stroke-linecap="butt"/></g><g data-paper-data="{&quot;index&quot;:null}"><path d="M211.54928,244.79089l6.30232,-11.04201l19.43857,-3.45895l1.0269,15.2678z" fill="#fe0000" stroke="none" stroke-width="0" stroke-linecap="butt"/><path d="M233.59612,240.8782c0,0 -4.6729,2.31826 -7.91918,2.81021c-3.24628,0.49196 -12.40186,0.42223 -12.40186,0.42223l4.71435,-10.15891l19.4826,-3.10355l0.26029,10.02049z" fill="#b50004" stroke="none" stroke-width="0" stroke-linecap="round"/><path d="M211.75617,244.36731l6.09543,-10.61843l19.43857,-3.45895l1.0269,15.2678z" fill="none" stroke="#000000" stroke-width="2" stroke-linecap="butt"/></g></g></g></g></svg>